<mxfile host="app.diagrams.net" agent="Mozilla/5.0 (Windows NT 10.0; Win64; x64) AppleWebKit/537.36 (KHTML, like Gecko) Chrome/129.0.0.0 Safari/537.36" version="24.7.16">
  <diagram id="C5RBs43oDa-KdzZeNtuy" name="Page-1">
    <mxGraphModel dx="1659" dy="912" grid="1" gridSize="10" guides="1" tooltips="1" connect="1" arrows="1" fold="1" page="1" pageScale="1" pageWidth="827" pageHeight="1169" math="0" shadow="0">
      <root>
        <mxCell id="WIyWlLk6GJQsqaUBKTNV-0" />
        <mxCell id="WIyWlLk6GJQsqaUBKTNV-1" parent="WIyWlLk6GJQsqaUBKTNV-0" />
        <mxCell id="7Ulus1duQFmehfc_UJfe-38" value="Сотрудник" style="swimlane;fontStyle=1;align=center;verticalAlign=top;childLayout=stackLayout;horizontal=1;startSize=26;horizontalStack=0;resizeParent=1;resizeLast=0;collapsible=1;marginBottom=0;rounded=0;shadow=0;strokeWidth=1;strokeColor=default;" vertex="1" parent="WIyWlLk6GJQsqaUBKTNV-1">
          <mxGeometry x="280" y="120" width="118" height="208" as="geometry">
            <mxRectangle x="550" y="140" width="160" height="26" as="alternateBounds" />
          </mxGeometry>
        </mxCell>
        <mxCell id="7Ulus1duQFmehfc_UJfe-39" value="ID сотрудника" style="text;align=center;verticalAlign=top;spacingLeft=4;spacingRight=4;overflow=hidden;rotatable=0;points=[[0,0.5],[1,0.5]];portConstraint=eastwest;strokeColor=default;" vertex="1" parent="7Ulus1duQFmehfc_UJfe-38">
          <mxGeometry y="26" width="118" height="26" as="geometry" />
        </mxCell>
        <mxCell id="7Ulus1duQFmehfc_UJfe-265" value="Отдел" style="text;align=center;verticalAlign=top;spacingLeft=4;spacingRight=4;overflow=hidden;rotatable=0;points=[[0,0.5],[1,0.5]];portConstraint=eastwest;strokeColor=default;" vertex="1" parent="7Ulus1duQFmehfc_UJfe-38">
          <mxGeometry y="52" width="118" height="26" as="geometry" />
        </mxCell>
        <mxCell id="7Ulus1duQFmehfc_UJfe-42" value="ФИО" style="text;align=center;verticalAlign=top;spacingLeft=4;spacingRight=4;overflow=hidden;rotatable=0;points=[[0,0.5],[1,0.5]];portConstraint=eastwest;rounded=0;shadow=0;html=0;strokeColor=none;" vertex="1" parent="7Ulus1duQFmehfc_UJfe-38">
          <mxGeometry y="78" width="118" height="26" as="geometry" />
        </mxCell>
        <mxCell id="7Ulus1duQFmehfc_UJfe-43" value="Дата рождения" style="text;align=center;verticalAlign=top;spacingLeft=4;spacingRight=4;overflow=hidden;rotatable=0;points=[[0,0.5],[1,0.5]];portConstraint=eastwest;strokeColor=default;" vertex="1" parent="7Ulus1duQFmehfc_UJfe-38">
          <mxGeometry y="104" width="118" height="26" as="geometry" />
        </mxCell>
        <mxCell id="7Ulus1duQFmehfc_UJfe-46" value="Email" style="text;align=center;verticalAlign=top;spacingLeft=4;spacingRight=4;overflow=hidden;rotatable=0;points=[[0,0.5],[1,0.5]];portConstraint=eastwest;rounded=0;shadow=0;html=0;strokeColor=none;" vertex="1" parent="7Ulus1duQFmehfc_UJfe-38">
          <mxGeometry y="130" width="118" height="26" as="geometry" />
        </mxCell>
        <mxCell id="7Ulus1duQFmehfc_UJfe-45" value="Должность" style="text;align=center;verticalAlign=top;spacingLeft=4;spacingRight=4;overflow=hidden;rotatable=0;points=[[0,0.5],[1,0.5]];portConstraint=eastwest;rounded=0;shadow=0;html=0;strokeColor=default;" vertex="1" parent="7Ulus1duQFmehfc_UJfe-38">
          <mxGeometry y="156" width="118" height="26" as="geometry" />
        </mxCell>
        <mxCell id="7Ulus1duQFmehfc_UJfe-44" value="Отдел" style="text;align=center;verticalAlign=top;spacingLeft=4;spacingRight=4;overflow=hidden;rotatable=0;points=[[0,0.5],[1,0.5]];portConstraint=eastwest;rounded=0;shadow=0;html=0;strokeColor=none;" vertex="1" parent="7Ulus1duQFmehfc_UJfe-38">
          <mxGeometry y="182" width="118" height="26" as="geometry" />
        </mxCell>
        <mxCell id="7Ulus1duQFmehfc_UJfe-169" value="Отдел" style="swimlane;fontStyle=1;align=center;verticalAlign=top;childLayout=stackLayout;horizontal=1;startSize=26;horizontalStack=0;resizeParent=1;resizeLast=0;collapsible=1;marginBottom=0;rounded=0;shadow=0;strokeWidth=1;strokeColor=default;" vertex="1" parent="WIyWlLk6GJQsqaUBKTNV-1">
          <mxGeometry x="520" y="120" width="118" height="110" as="geometry">
            <mxRectangle x="550" y="140" width="160" height="26" as="alternateBounds" />
          </mxGeometry>
        </mxCell>
        <mxCell id="7Ulus1duQFmehfc_UJfe-170" value="ID отдела" style="text;align=center;verticalAlign=top;spacingLeft=4;spacingRight=4;overflow=hidden;rotatable=0;points=[[0,0.5],[1,0.5]];portConstraint=eastwest;strokeColor=default;" vertex="1" parent="7Ulus1duQFmehfc_UJfe-169">
          <mxGeometry y="26" width="118" height="26" as="geometry" />
        </mxCell>
        <mxCell id="7Ulus1duQFmehfc_UJfe-171" value="Название" style="text;align=center;verticalAlign=top;spacingLeft=4;spacingRight=4;overflow=hidden;rotatable=0;points=[[0,0.5],[1,0.5]];portConstraint=eastwest;rounded=0;shadow=0;html=0;strokeColor=default;" vertex="1" parent="7Ulus1duQFmehfc_UJfe-169">
          <mxGeometry y="52" width="118" height="26" as="geometry" />
        </mxCell>
        <mxCell id="7Ulus1duQFmehfc_UJfe-172" value="Город нахождения" style="text;align=center;verticalAlign=top;spacingLeft=4;spacingRight=4;overflow=hidden;rotatable=0;points=[[0,0.5],[1,0.5]];portConstraint=eastwest;rounded=0;shadow=0;html=0;strokeColor=none;" vertex="1" parent="7Ulus1duQFmehfc_UJfe-169">
          <mxGeometry y="78" width="118" height="32" as="geometry" />
        </mxCell>
        <mxCell id="7Ulus1duQFmehfc_UJfe-181" value="Проект" style="swimlane;fontStyle=1;align=center;verticalAlign=top;childLayout=stackLayout;horizontal=1;startSize=26;horizontalStack=0;resizeParent=1;resizeLast=0;collapsible=1;marginBottom=0;rounded=0;shadow=0;strokeWidth=1;strokeColor=default;" vertex="1" parent="WIyWlLk6GJQsqaUBKTNV-1">
          <mxGeometry x="520" y="280" width="118" height="160" as="geometry">
            <mxRectangle x="550" y="140" width="160" height="26" as="alternateBounds" />
          </mxGeometry>
        </mxCell>
        <mxCell id="7Ulus1duQFmehfc_UJfe-182" value="ID проекта" style="text;align=center;verticalAlign=top;spacingLeft=4;spacingRight=4;overflow=hidden;rotatable=0;points=[[0,0.5],[1,0.5]];portConstraint=eastwest;strokeColor=default;" vertex="1" parent="7Ulus1duQFmehfc_UJfe-181">
          <mxGeometry y="26" width="118" height="26" as="geometry" />
        </mxCell>
        <mxCell id="7Ulus1duQFmehfc_UJfe-183" value="Название" style="text;align=center;verticalAlign=top;spacingLeft=4;spacingRight=4;overflow=hidden;rotatable=0;points=[[0,0.5],[1,0.5]];portConstraint=eastwest;rounded=0;shadow=0;html=0;strokeColor=none;" vertex="1" parent="7Ulus1duQFmehfc_UJfe-181">
          <mxGeometry y="52" width="118" height="26" as="geometry" />
        </mxCell>
        <mxCell id="7Ulus1duQFmehfc_UJfe-184" value="Описание" style="text;align=center;verticalAlign=top;spacingLeft=4;spacingRight=4;overflow=hidden;rotatable=0;points=[[0,0.5],[1,0.5]];portConstraint=eastwest;rounded=0;shadow=0;html=0;strokeColor=default;" vertex="1" parent="7Ulus1duQFmehfc_UJfe-181">
          <mxGeometry y="78" width="118" height="26" as="geometry" />
        </mxCell>
        <mxCell id="7Ulus1duQFmehfc_UJfe-185" value="Дата начала" style="text;align=center;verticalAlign=top;spacingLeft=4;spacingRight=4;overflow=hidden;rotatable=0;points=[[0,0.5],[1,0.5]];portConstraint=eastwest;rounded=0;shadow=0;html=0;strokeColor=default;" vertex="1" parent="7Ulus1duQFmehfc_UJfe-181">
          <mxGeometry y="104" width="118" height="26" as="geometry" />
        </mxCell>
        <mxCell id="7Ulus1duQFmehfc_UJfe-186" value="Дата окончания" style="text;align=center;verticalAlign=top;spacingLeft=4;spacingRight=4;overflow=hidden;rotatable=0;points=[[0,0.5],[1,0.5]];portConstraint=eastwest;strokeColor=none;" vertex="1" parent="7Ulus1duQFmehfc_UJfe-181">
          <mxGeometry y="130" width="118" height="26" as="geometry" />
        </mxCell>
        <mxCell id="7Ulus1duQFmehfc_UJfe-193" value="Участники проекта" style="swimlane;fontStyle=1;align=center;verticalAlign=top;childLayout=stackLayout;horizontal=1;startSize=26;horizontalStack=0;resizeParent=1;resizeLast=0;collapsible=1;marginBottom=0;rounded=0;shadow=0;strokeWidth=1;strokeColor=default;" vertex="1" parent="WIyWlLk6GJQsqaUBKTNV-1">
          <mxGeometry x="504" y="520" width="150" height="160" as="geometry">
            <mxRectangle x="550" y="140" width="160" height="26" as="alternateBounds" />
          </mxGeometry>
        </mxCell>
        <mxCell id="7Ulus1duQFmehfc_UJfe-194" value="ID проекта" style="text;align=center;verticalAlign=top;spacingLeft=4;spacingRight=4;overflow=hidden;rotatable=0;points=[[0,0.5],[1,0.5]];portConstraint=eastwest;strokeColor=default;" vertex="1" parent="7Ulus1duQFmehfc_UJfe-193">
          <mxGeometry y="26" width="150" height="26" as="geometry" />
        </mxCell>
        <mxCell id="7Ulus1duQFmehfc_UJfe-195" value="ID сотрудника" style="text;align=center;verticalAlign=top;spacingLeft=4;spacingRight=4;overflow=hidden;rotatable=0;points=[[0,0.5],[1,0.5]];portConstraint=eastwest;rounded=0;shadow=0;html=0;strokeColor=none;" vertex="1" parent="7Ulus1duQFmehfc_UJfe-193">
          <mxGeometry y="52" width="150" height="26" as="geometry" />
        </mxCell>
        <mxCell id="7Ulus1duQFmehfc_UJfe-197" value="Роль в проекте" style="text;align=center;verticalAlign=top;spacingLeft=4;spacingRight=4;overflow=hidden;rotatable=0;points=[[0,0.5],[1,0.5]];portConstraint=eastwest;rounded=0;shadow=0;html=0;strokeColor=default;" vertex="1" parent="7Ulus1duQFmehfc_UJfe-193">
          <mxGeometry y="78" width="150" height="26" as="geometry" />
        </mxCell>
        <mxCell id="7Ulus1duQFmehfc_UJfe-198" value="Дата начала" style="text;align=center;verticalAlign=top;spacingLeft=4;spacingRight=4;overflow=hidden;rotatable=0;points=[[0,0.5],[1,0.5]];portConstraint=eastwest;strokeColor=default;" vertex="1" parent="7Ulus1duQFmehfc_UJfe-193">
          <mxGeometry y="104" width="150" height="26" as="geometry" />
        </mxCell>
        <mxCell id="7Ulus1duQFmehfc_UJfe-199" value="Дата окончания" style="text;align=center;verticalAlign=top;spacingLeft=4;spacingRight=4;overflow=hidden;rotatable=0;points=[[0,0.5],[1,0.5]];portConstraint=eastwest;rounded=0;shadow=0;html=0;strokeColor=none;" vertex="1" parent="7Ulus1duQFmehfc_UJfe-193">
          <mxGeometry y="130" width="150" height="26" as="geometry" />
        </mxCell>
        <mxCell id="7Ulus1duQFmehfc_UJfe-212" value="Клиент" style="swimlane;fontStyle=1;align=center;verticalAlign=top;childLayout=stackLayout;horizontal=1;startSize=26;horizontalStack=0;resizeParent=1;resizeLast=0;collapsible=1;marginBottom=0;rounded=0;shadow=0;strokeWidth=1;strokeColor=default;" vertex="1" parent="WIyWlLk6GJQsqaUBKTNV-1">
          <mxGeometry x="960" y="360" width="118" height="190" as="geometry">
            <mxRectangle x="550" y="140" width="160" height="26" as="alternateBounds" />
          </mxGeometry>
        </mxCell>
        <mxCell id="7Ulus1duQFmehfc_UJfe-213" value="ID клиента" style="text;align=center;verticalAlign=top;spacingLeft=4;spacingRight=4;overflow=hidden;rotatable=0;points=[[0,0.5],[1,0.5]];portConstraint=eastwest;strokeColor=default;" vertex="1" parent="7Ulus1duQFmehfc_UJfe-212">
          <mxGeometry y="26" width="118" height="26" as="geometry" />
        </mxCell>
        <mxCell id="7Ulus1duQFmehfc_UJfe-214" value="Название" style="text;align=center;verticalAlign=top;spacingLeft=4;spacingRight=4;overflow=hidden;rotatable=0;points=[[0,0.5],[1,0.5]];portConstraint=eastwest;rounded=0;shadow=0;html=0;strokeColor=none;" vertex="1" parent="7Ulus1duQFmehfc_UJfe-212">
          <mxGeometry y="52" width="118" height="26" as="geometry" />
        </mxCell>
        <mxCell id="7Ulus1duQFmehfc_UJfe-215" value="ФИО" style="text;align=center;verticalAlign=top;spacingLeft=4;spacingRight=4;overflow=hidden;rotatable=0;points=[[0,0.5],[1,0.5]];portConstraint=eastwest;rounded=0;shadow=0;html=0;strokeColor=default;" vertex="1" parent="7Ulus1duQFmehfc_UJfe-212">
          <mxGeometry y="78" width="118" height="26" as="geometry" />
        </mxCell>
        <mxCell id="7Ulus1duQFmehfc_UJfe-216" value="Телефон" style="text;align=center;verticalAlign=top;spacingLeft=4;spacingRight=4;overflow=hidden;rotatable=0;points=[[0,0.5],[1,0.5]];portConstraint=eastwest;rounded=0;shadow=0;html=0;" vertex="1" parent="7Ulus1duQFmehfc_UJfe-212">
          <mxGeometry y="104" width="118" height="26" as="geometry" />
        </mxCell>
        <mxCell id="7Ulus1duQFmehfc_UJfe-217" value="Email" style="text;align=center;verticalAlign=top;spacingLeft=4;spacingRight=4;overflow=hidden;rotatable=0;points=[[0,0.5],[1,0.5]];portConstraint=eastwest;strokeColor=default;" vertex="1" parent="7Ulus1duQFmehfc_UJfe-212">
          <mxGeometry y="130" width="118" height="26" as="geometry" />
        </mxCell>
        <mxCell id="7Ulus1duQFmehfc_UJfe-218" value="Адрес" style="text;align=center;verticalAlign=top;spacingLeft=4;spacingRight=4;overflow=hidden;rotatable=0;points=[[0,0.5],[1,0.5]];portConstraint=eastwest;rounded=0;shadow=0;html=0;" vertex="1" parent="7Ulus1duQFmehfc_UJfe-212">
          <mxGeometry y="156" width="118" height="26" as="geometry" />
        </mxCell>
        <mxCell id="7Ulus1duQFmehfc_UJfe-224" value="Задача" style="swimlane;fontStyle=1;align=center;verticalAlign=top;childLayout=stackLayout;horizontal=1;startSize=26;horizontalStack=0;resizeParent=1;resizeLast=0;collapsible=1;marginBottom=0;rounded=0;shadow=0;strokeWidth=1;strokeColor=default;" vertex="1" parent="WIyWlLk6GJQsqaUBKTNV-1">
          <mxGeometry x="760" y="300" width="118" height="210" as="geometry">
            <mxRectangle x="550" y="140" width="160" height="26" as="alternateBounds" />
          </mxGeometry>
        </mxCell>
        <mxCell id="7Ulus1duQFmehfc_UJfe-257" value="ID клиента" style="text;align=center;verticalAlign=top;spacingLeft=4;spacingRight=4;overflow=hidden;rotatable=0;points=[[0,0.5],[1,0.5]];portConstraint=eastwest;strokeColor=default;" vertex="1" parent="7Ulus1duQFmehfc_UJfe-224">
          <mxGeometry y="26" width="118" height="26" as="geometry" />
        </mxCell>
        <mxCell id="7Ulus1duQFmehfc_UJfe-226" value="Название" style="text;align=center;verticalAlign=top;spacingLeft=4;spacingRight=4;overflow=hidden;rotatable=0;points=[[0,0.5],[1,0.5]];portConstraint=eastwest;rounded=0;shadow=0;html=0;strokeColor=none;" vertex="1" parent="7Ulus1duQFmehfc_UJfe-224">
          <mxGeometry y="52" width="118" height="26" as="geometry" />
        </mxCell>
        <mxCell id="7Ulus1duQFmehfc_UJfe-227" value="Описание" style="text;align=center;verticalAlign=top;spacingLeft=4;spacingRight=4;overflow=hidden;rotatable=0;points=[[0,0.5],[1,0.5]];portConstraint=eastwest;rounded=0;shadow=0;html=0;strokeColor=default;" vertex="1" parent="7Ulus1duQFmehfc_UJfe-224">
          <mxGeometry y="78" width="118" height="26" as="geometry" />
        </mxCell>
        <mxCell id="7Ulus1duQFmehfc_UJfe-228" value="Дата создания" style="text;align=center;verticalAlign=top;spacingLeft=4;spacingRight=4;overflow=hidden;rotatable=0;points=[[0,0.5],[1,0.5]];portConstraint=eastwest;rounded=0;shadow=0;html=0;strokeColor=none;" vertex="1" parent="7Ulus1duQFmehfc_UJfe-224">
          <mxGeometry y="104" width="118" height="26" as="geometry" />
        </mxCell>
        <mxCell id="7Ulus1duQFmehfc_UJfe-229" value="Дата окончания" style="text;align=center;verticalAlign=top;spacingLeft=4;spacingRight=4;overflow=hidden;rotatable=0;points=[[0,0.5],[1,0.5]];portConstraint=eastwest;strokeColor=none;" vertex="1" parent="7Ulus1duQFmehfc_UJfe-224">
          <mxGeometry y="130" width="118" height="26" as="geometry" />
        </mxCell>
        <mxCell id="7Ulus1duQFmehfc_UJfe-230" value="ID проекта" style="text;align=center;verticalAlign=top;spacingLeft=4;spacingRight=4;overflow=hidden;rotatable=0;points=[[0,0.5],[1,0.5]];portConstraint=eastwest;rounded=0;shadow=0;html=0;strokeColor=default;" vertex="1" parent="7Ulus1duQFmehfc_UJfe-224">
          <mxGeometry y="156" width="118" height="26" as="geometry" />
        </mxCell>
        <mxCell id="7Ulus1duQFmehfc_UJfe-231" value="ID сотрудника" style="text;align=center;verticalAlign=top;spacingLeft=4;spacingRight=4;overflow=hidden;rotatable=0;points=[[0,0.5],[1,0.5]];portConstraint=eastwest;rounded=0;shadow=0;html=0;strokeColor=none;" vertex="1" parent="7Ulus1duQFmehfc_UJfe-224">
          <mxGeometry y="182" width="118" height="26" as="geometry" />
        </mxCell>
        <mxCell id="7Ulus1duQFmehfc_UJfe-250" style="edgeStyle=orthogonalEdgeStyle;rounded=0;orthogonalLoop=1;jettySize=auto;html=1;exitX=0;exitY=0.5;exitDx=0;exitDy=0;entryX=0;entryY=0.5;entryDx=0;entryDy=0;" edge="1" parent="WIyWlLk6GJQsqaUBKTNV-1" source="7Ulus1duQFmehfc_UJfe-195" target="7Ulus1duQFmehfc_UJfe-39">
          <mxGeometry relative="1" as="geometry">
            <Array as="points">
              <mxPoint x="200" y="585" />
              <mxPoint x="200" y="159" />
            </Array>
          </mxGeometry>
        </mxCell>
        <mxCell id="7Ulus1duQFmehfc_UJfe-251" style="edgeStyle=orthogonalEdgeStyle;rounded=0;orthogonalLoop=1;jettySize=auto;html=1;exitX=0;exitY=0.5;exitDx=0;exitDy=0;entryX=0;entryY=0.5;entryDx=0;entryDy=0;" edge="1" parent="WIyWlLk6GJQsqaUBKTNV-1" source="7Ulus1duQFmehfc_UJfe-194" target="7Ulus1duQFmehfc_UJfe-182">
          <mxGeometry relative="1" as="geometry">
            <Array as="points">
              <mxPoint x="480" y="559" />
              <mxPoint x="480" y="319" />
            </Array>
          </mxGeometry>
        </mxCell>
        <mxCell id="7Ulus1duQFmehfc_UJfe-253" style="edgeStyle=orthogonalEdgeStyle;rounded=0;orthogonalLoop=1;jettySize=auto;html=1;exitX=0;exitY=0.5;exitDx=0;exitDy=0;entryX=1;entryY=0.5;entryDx=0;entryDy=0;" edge="1" parent="WIyWlLk6GJQsqaUBKTNV-1" source="7Ulus1duQFmehfc_UJfe-230" target="7Ulus1duQFmehfc_UJfe-194">
          <mxGeometry relative="1" as="geometry" />
        </mxCell>
        <mxCell id="7Ulus1duQFmehfc_UJfe-254" style="edgeStyle=orthogonalEdgeStyle;rounded=0;orthogonalLoop=1;jettySize=auto;html=1;exitX=0;exitY=0.5;exitDx=0;exitDy=0;entryX=1;entryY=0.5;entryDx=0;entryDy=0;" edge="1" parent="WIyWlLk6GJQsqaUBKTNV-1" source="7Ulus1duQFmehfc_UJfe-231" target="7Ulus1duQFmehfc_UJfe-195">
          <mxGeometry relative="1" as="geometry">
            <Array as="points">
              <mxPoint x="730" y="515" />
              <mxPoint x="730" y="585" />
            </Array>
          </mxGeometry>
        </mxCell>
        <mxCell id="7Ulus1duQFmehfc_UJfe-258" style="edgeStyle=orthogonalEdgeStyle;rounded=0;orthogonalLoop=1;jettySize=auto;html=1;exitX=0;exitY=0.5;exitDx=0;exitDy=0;entryX=1;entryY=0.5;entryDx=0;entryDy=0;" edge="1" parent="WIyWlLk6GJQsqaUBKTNV-1" source="7Ulus1duQFmehfc_UJfe-213" target="7Ulus1duQFmehfc_UJfe-257">
          <mxGeometry relative="1" as="geometry" />
        </mxCell>
        <mxCell id="7Ulus1duQFmehfc_UJfe-266" style="edgeStyle=orthogonalEdgeStyle;rounded=0;orthogonalLoop=1;jettySize=auto;html=1;exitX=1;exitY=0.5;exitDx=0;exitDy=0;entryX=0;entryY=0.5;entryDx=0;entryDy=0;" edge="1" parent="WIyWlLk6GJQsqaUBKTNV-1" source="7Ulus1duQFmehfc_UJfe-265" target="7Ulus1duQFmehfc_UJfe-170">
          <mxGeometry relative="1" as="geometry" />
        </mxCell>
      </root>
    </mxGraphModel>
  </diagram>
</mxfile>
